<svg width="600" height="600" viewBox="0 0 600 600" fill="none" xmlns="http://www.w3.org/2000/svg">
<path opacity="0.6" d="M280.844 11.0599L289.564 6.02523L289.939 6.67475L290.375 6.42302C290.508 6.34647 290.641 6.27163 290.775 6.19849L290.415 5.54025C293.258 3.98785 296.384 3.17432 299.524 3.09967L299.542 3.84945C299.847 3.84219 300.153 3.84219 300.458 3.84945L300.476 3.09967C303.616 3.17432 306.742 3.98785 309.585 5.54025L309.225 6.19849C309.359 6.27163 309.492 6.34647 309.625 6.42302L310.061 6.6748L310.436 6.02528L319.156 11.0599L318.781 11.7095L319.653 12.2129L320.028 11.5634L328.749 16.5981L328.374 17.2476L329.246 17.751L329.621 17.1015L338.341 22.1362L337.966 22.7857L338.838 23.2892L339.213 22.6396L347.933 27.6743L347.558 28.3238L348.43 28.8273L348.805 28.1778L357.526 33.2124L357.151 33.8619L358.023 34.3654L358.398 33.7159L367.118 38.7505L366.743 39.4L367.615 39.9035L367.99 39.254L376.71 44.2886L376.335 44.9382L377.207 45.4416L377.582 44.7921L386.302 49.8268L385.927 50.4763L386.799 50.9797L387.174 50.3302L395.895 55.3649L395.52 56.0144L396.392 56.5179L396.767 55.8683L405.487 60.903L405.112 61.5525L405.984 62.056L406.359 61.4065L415.079 66.4411L414.704 67.0906L415.576 67.5941L415.951 66.9446L424.672 71.9792L424.297 72.6287L425.169 73.1322L425.544 72.4827L434.264 77.5173L433.889 78.1669L434.761 78.6703L435.136 78.0208L443.856 83.0555L443.481 83.705L444.353 84.2084L444.728 83.5589L453.449 88.5936L453.074 89.2431L453.946 89.7466L454.321 89.0971L463.041 94.1317L462.666 94.7812L463.538 95.2847L463.913 94.6352L472.633 99.6698L472.258 100.319L473.13 100.823L473.505 100.173L482.225 105.208L481.85 105.857L482.723 106.361L483.098 105.711L491.818 110.746L491.443 111.396L492.315 111.899L492.69 111.25L501.41 116.284L501.035 116.934L501.907 117.437L502.282 116.788L511.002 121.822L510.627 122.472L511.499 122.975L511.874 122.326L520.595 127.36L520.22 128.01L521.092 128.513L521.467 127.864L530.187 132.899L529.812 133.548L530.684 134.052L531.059 133.402L539.779 138.437L539.404 139.086L540.276 139.59L540.651 138.94L549.372 143.975L548.997 144.624L549.433 144.876C549.565 144.953 549.697 145.031 549.827 145.11L550.217 144.47C552.983 146.155 555.251 148.456 556.885 151.138L556.245 151.528C556.404 151.789 556.557 152.053 556.703 152.321L557.361 151.962C558.867 154.719 559.725 157.833 559.802 161.071L559.052 161.089C559.054 161.15 559.055 161.211 559.056 161.273C559.057 161.364 559.058 161.456 559.058 161.547V162.051H559.808V172.12H559.058V173.127H559.808V183.196H559.058V184.203H559.808V194.272H559.058V195.279H559.808V205.349H559.058V206.356H559.808V216.425H559.058V217.432H559.808V227.501H559.058V228.508H559.808V238.577H559.058V239.584H559.808V249.654H559.058V250.66H559.808V260.73H559.058V261.737H559.808V271.806H559.058V272.813H559.808V282.882H559.058V283.889H559.808V293.958H559.058V294.965H559.808V305.035H559.058V306.042H559.808V316.111H559.058V317.118H559.808V327.187H559.058V328.194H559.808V338.263H559.058V339.27H559.808V349.34H559.058V350.347H559.808V360.416H559.058V361.423H559.808V371.492H559.058V372.499H559.808V382.568H559.058V383.575H559.808V393.645H559.058V394.652H559.808V404.721H559.058V405.728H559.808V415.797H559.058V416.804H559.808V426.873H559.058V427.88H559.808V437.95H559.058V438.453C559.058 438.606 559.056 438.759 559.052 438.911L559.802 438.929C559.725 442.167 558.867 445.281 557.361 448.038L556.703 447.679C556.643 447.789 556.581 447.898 556.519 448.007C556.43 448.164 556.338 448.318 556.245 448.472L556.885 448.862C555.251 451.544 552.983 453.845 550.217 455.53L549.827 454.89C549.697 454.969 549.565 455.047 549.433 455.124L548.997 455.376L549.372 456.025L540.651 461.06L540.276 460.41L539.404 460.914L539.779 461.563L531.059 466.598L530.684 465.949L529.812 466.452L530.187 467.102L521.467 472.136L521.092 471.487L520.22 471.99L520.595 472.64L511.874 477.674L511.499 477.025L510.627 477.528L511.002 478.178L502.282 483.212L501.907 482.563L501.035 483.066L501.41 483.716L492.69 488.751L492.315 488.101L491.443 488.604L491.818 489.254L483.097 494.289L482.722 493.639L481.85 494.143L482.225 494.792L473.505 499.827L473.13 499.177L472.258 499.681L472.633 500.33L463.913 505.365L463.538 504.715L462.666 505.219L463.041 505.868L454.321 510.903L453.946 510.253L453.074 510.757L453.449 511.406L444.728 516.441L444.353 515.792L443.481 516.295L443.856 516.945L435.136 521.979L434.761 521.33L433.889 521.833L434.264 522.483L425.544 527.517L425.169 526.868L424.297 527.371L424.672 528.021L415.951 533.055L415.576 532.406L414.704 532.909L415.079 533.559L406.359 538.594L405.984 537.944L405.112 538.448L405.487 539.097L396.767 544.132L396.392 543.482L395.52 543.986L395.895 544.635L387.174 549.67L386.799 549.02L385.927 549.524L386.302 550.173L377.582 555.208L377.207 554.558L376.335 555.062L376.71 555.711L367.99 560.746L367.615 560.097L366.743 560.6L367.118 561.25L358.398 566.284L358.023 565.635L357.151 566.138L357.526 566.788L348.805 571.822L348.43 571.173L347.558 571.676L347.933 572.326L339.213 577.36L338.838 576.711L337.966 577.214L338.341 577.864L329.621 582.898L329.246 582.249L328.374 582.753L328.749 583.402L320.028 588.437L319.653 587.787L318.781 588.291L319.156 588.94L310.436 593.975L310.061 593.325L309.625 593.577C309.492 593.654 309.359 593.728 309.225 593.802L309.585 594.46C306.742 596.012 303.616 596.826 300.476 596.9L300.458 596.151C300.153 596.158 299.847 596.158 299.542 596.151L299.524 596.9C296.384 596.826 293.258 596.012 290.415 594.46L290.775 593.802C290.726 593.775 290.678 593.748 290.629 593.721C290.544 593.674 290.46 593.626 290.375 593.577L289.939 593.325L289.564 593.975L280.844 588.94L281.219 588.291L280.347 587.787L279.972 588.437L271.251 583.402L271.626 582.752L270.754 582.249L270.379 582.898L261.659 577.864L262.034 577.214L261.162 576.711L260.787 577.36L252.067 572.326L252.442 571.676L251.57 571.173L251.195 571.822L242.474 566.788L242.849 566.138L241.977 565.635L241.602 566.284L232.882 561.249L233.257 560.6L232.385 560.096L232.01 560.746L223.29 555.711L223.665 555.062L222.793 554.558L222.418 555.208L213.698 550.173L214.073 549.524L213.2 549.02L212.825 549.67L204.105 544.635L204.48 543.986L203.608 543.482L203.233 544.132L194.513 539.097L194.888 538.448L194.016 537.944L193.641 538.594L184.921 533.559L185.296 532.909L184.424 532.406L184.049 533.055L175.328 528.021L175.703 527.371L174.831 526.868L174.456 527.517L165.736 522.483L166.111 521.833L165.239 521.33L164.864 521.979L156.144 516.945L156.519 516.295L155.647 515.792L155.272 516.441L146.551 511.406L146.926 510.757L146.054 510.253L145.679 510.903L136.959 505.868L137.334 505.219L136.462 504.715L136.087 505.365L127.367 500.33L127.742 499.681L126.87 499.177L126.495 499.827L117.775 494.792L118.15 494.143L117.277 493.639L116.902 494.289L108.182 489.254L108.557 488.604L107.685 488.101L107.31 488.75L98.5899 483.716L98.9649 483.066L98.0929 482.563L97.7179 483.212L88.9976 478.178L89.3726 477.528L88.5006 477.025L88.1256 477.674L79.4053 472.64L79.7803 471.99L78.9083 471.487L78.5333 472.136L69.813 467.101L70.188 466.452L69.316 465.948L68.941 466.598L60.2207 461.563L60.5957 460.914L59.7237 460.41L59.3487 461.06L50.6284 456.025L51.0034 455.376L50.5674 455.124C50.5004 455.085 50.4337 455.046 50.3674 455.007C50.3023 454.968 50.2375 454.929 50.173 454.89L49.7827 455.53C47.0171 453.845 44.7494 451.544 43.1147 448.862L43.7552 448.472C43.5962 448.211 43.4434 447.947 43.297 447.679L42.6388 448.038C41.1335 445.281 40.2749 442.167 40.198 438.929L40.9478 438.911C40.9465 438.856 40.9454 438.801 40.9446 438.745C40.9431 438.648 40.9424 438.55 40.9424 438.453V437.949H40.1924V427.88H40.9424V426.873H40.1924V416.804H40.9424V415.797H40.1924V405.728H40.9424V404.721H40.1924V394.651H40.9424V393.644H40.1924V383.575H40.9424V382.568H40.1924V372.499H40.9424V371.492H40.1924V361.423H40.9424V360.416H40.1924V350.346H40.9424V349.34H40.1924V339.27H40.9424V338.263H40.1924V328.194H40.9424V327.187H40.1924V317.118H40.9424V316.111H40.1924V306.042H40.9424V305.035H40.1924V294.965H40.9424V293.958H40.1924V283.889H40.9424V282.882H40.1924V272.813H40.9424V271.806H40.1924V261.737H40.9424V260.73H40.1924V250.66H40.9424V249.653H40.1924V239.584H40.9424V238.577H40.1924V228.508H40.9424V227.501H40.1924V217.432H40.9424V216.425H40.1924V206.355H40.9424V205.348H40.1924V195.279H40.9424V194.272H40.1924V184.203H40.9424V183.196H40.1924V173.127H40.9424V172.12H40.1924V162.05H40.9424V161.547C40.9424 161.394 40.9442 161.241 40.9478 161.089L40.198 161.071C40.2749 157.833 41.1335 154.719 42.6388 151.962L43.297 152.321C43.4434 152.053 43.5962 151.789 43.7552 151.528L43.1147 151.138C44.7494 148.456 47.0171 146.155 49.7827 144.47L50.173 145.11C50.3033 145.031 50.4348 144.953 50.5674 144.876L51.0035 144.624L50.6285 143.975L59.3488 138.94L59.7238 139.59L60.5958 139.086L60.2208 138.437L68.9411 133.402L69.3161 134.051L70.1881 133.548L69.8131 132.898L78.5334 127.864L78.9084 128.513L79.7804 128.01L79.4054 127.36L88.1257 122.326L88.5007 122.975L89.3727 122.472L88.9977 121.822L97.718 116.788L98.093 117.437L98.965 116.934L98.59 116.284L107.31 111.249L107.685 111.899L108.557 111.396L108.182 110.746L116.903 105.711L117.278 106.361L118.15 105.857L117.775 105.208L126.495 100.173L126.87 100.823L127.742 100.319L127.367 99.6698L136.087 94.6351L136.462 95.2846L137.334 94.7812L136.959 94.1317L145.679 89.097L146.054 89.7465L146.926 89.2431L146.551 88.5935L155.272 83.5589L155.647 84.2084L156.519 83.7049L156.144 83.0554L164.864 78.0208L165.239 78.6703L166.111 78.1668L165.736 77.5173L174.456 72.4827L174.831 73.1322L175.703 72.6287L175.328 71.9792L184.049 66.9445L184.424 67.5941L185.296 67.0906L184.921 66.4411L193.641 61.4064L194.016 62.0559L194.888 61.5525L194.513 60.903L203.233 55.8683L203.608 56.5178L204.48 56.0144L204.105 55.3648L212.826 50.3302L213.201 50.9797L214.073 50.4762L213.698 49.8267L222.418 44.7921L222.793 45.4416L223.665 44.9381L223.29 44.2886L232.01 39.254L232.385 39.9035L233.257 39.4L232.882 38.7505L241.602 33.7158L241.977 34.3654L242.849 33.8619L242.474 33.2124L251.195 28.1777L251.57 28.8272L252.442 28.3238L252.067 27.6743L260.787 22.6396L261.162 23.2891L262.034 22.7856L261.659 22.1361L270.379 17.1015L270.754 17.751L271.626 17.2475L271.251 16.598L279.972 11.5634L280.347 12.2129L281.219 11.7094L280.844 11.0599Z" stroke="#475C75" stroke-width="1.5" stroke-dasharray="1 10"/>
<path opacity="0.9" d="M280.983 80.6391L289.571 75.6811L289.946 76.3306L290.375 76.0827C290.508 76.0061 290.641 75.9313 290.775 75.8582L290.415 75.1999C293.258 73.6475 296.384 72.834 299.524 72.7593L299.542 73.5091C299.847 73.5019 300.153 73.5019 300.458 73.5091L300.476 72.7593C303.616 72.834 306.742 73.6475 309.585 75.1999L309.225 75.8582C309.359 75.9313 309.492 76.0061 309.625 76.0827L310.054 76.3306L310.429 75.6811L319.017 80.6391L318.642 81.2886L319.501 81.7844L319.876 81.1349L328.463 86.093L328.088 86.7425L328.947 87.2383L329.322 86.5888L337.91 91.5468L337.535 92.1964L338.393 92.6922L338.768 92.0426L347.356 97.0007L346.981 97.6502L347.84 98.146L348.215 97.4965L356.802 102.455L356.427 103.104L357.286 103.6L357.661 102.95L366.249 107.908L365.874 108.558L366.733 109.054L367.108 108.404L375.695 113.362L375.32 114.012L376.179 114.508L376.554 113.858L385.141 118.816L384.766 119.466L385.625 119.961L386 119.312L394.588 124.27L394.213 124.92L395.072 125.415L395.447 124.766L404.034 129.724L403.659 130.373L404.518 130.869L404.893 130.22L413.481 135.178L413.106 135.827L413.964 136.323L414.339 135.673L422.927 140.632L422.552 141.281L423.411 141.777L423.786 141.127L432.373 146.085L431.998 146.735L432.857 147.231L433.232 146.581L441.82 151.539L441.445 152.189L442.303 152.685L442.678 152.035L451.266 156.993L450.891 157.643L451.75 158.138L452.125 157.489L460.712 162.447L460.337 163.096L461.196 163.592L461.571 162.943L470.159 167.901L469.784 168.55L470.642 169.046L471.017 168.397L479.605 173.355L479.23 174.004L480.089 174.5L480.464 173.85L489.051 178.809L488.676 179.458L489.106 179.706C489.238 179.783 489.37 179.86 489.5 179.94L489.89 179.299C492.656 180.985 494.924 183.286 496.558 185.968L495.918 186.358C496.077 186.619 496.23 186.883 496.376 187.151L497.034 186.792C498.54 189.549 499.398 192.663 499.475 195.901L498.725 195.918C498.729 196.071 498.731 196.224 498.731 196.377V196.873H499.481V206.789H498.731V207.78H499.481V217.697H498.731V218.688H499.481V228.604H498.731V229.596H499.481V239.512H498.731V240.504H499.481V250.42H498.731V251.411H499.481V261.327H498.731V262.319H499.481V272.235H498.731V273.227H499.481V283.143H498.731V284.134H499.481V294.051H498.731V295.042H499.481V304.958H498.731V305.95H499.481V315.866H498.731V316.858H499.481V326.774H498.731V327.765H499.481V337.681H498.731V338.673H499.481V348.589H498.731V349.581H499.481V359.497H498.731V360.488H499.481V370.405H498.731V371.396H499.481V381.312H498.731V382.304H499.481V392.22H498.731V393.212H499.481V403.128H498.731V403.624C498.731 403.777 498.729 403.929 498.725 404.082L499.475 404.1C499.398 407.338 498.54 410.452 497.034 413.208L496.376 412.849C496.23 413.117 496.077 413.382 495.918 413.643L496.558 414.033C494.924 416.715 492.656 419.015 489.89 420.701L489.5 420.061C489.436 420.099 489.372 420.138 489.308 420.176C489.241 420.216 489.174 420.255 489.106 420.294L488.676 420.542L489.051 421.192L480.464 426.15L480.089 425.5L479.23 425.996L479.605 426.646L471.017 431.604L470.642 430.954L469.784 431.45L470.159 432.1L461.571 437.058L461.196 436.408L460.337 436.904L460.712 437.553L452.125 442.512L451.75 441.862L450.891 442.358L451.266 443.007L442.678 447.965L442.303 447.316L441.445 447.812L441.82 448.461L433.232 453.419L432.857 452.77L431.998 453.266L432.373 453.915L423.786 458.873L423.411 458.224L422.552 458.719L422.927 459.369L414.339 464.327L413.964 463.677L413.106 464.173L413.481 464.823L404.893 469.781L404.518 469.131L403.659 469.627L404.034 470.277L395.447 475.235L395.072 474.585L394.213 475.081L394.588 475.73L386 480.689L385.625 480.039L384.766 480.535L385.141 481.184L376.554 486.142L376.179 485.493L375.32 485.989L375.695 486.638L367.108 491.596L366.733 490.947L365.874 491.443L366.249 492.092L357.661 497.05L357.286 496.401L356.427 496.896L356.802 497.546L348.215 502.504L347.84 501.854L346.981 502.35L347.356 503L338.768 507.958L338.393 507.308L337.535 507.804L337.91 508.454L329.322 513.412L328.947 512.762L328.088 513.258L328.463 513.907L319.876 518.866L319.501 518.216L318.642 518.712L319.017 519.361L310.429 524.319L310.054 523.67L309.625 523.918C309.492 523.994 309.359 524.069 309.225 524.142L309.585 524.801C306.742 526.353 303.616 527.166 300.476 527.241L300.458 526.491C300.153 526.499 299.847 526.499 299.542 526.491L299.524 527.241C296.384 527.166 293.258 526.353 290.415 524.801L290.775 524.142C290.711 524.107 290.647 524.072 290.583 524.036C290.514 523.997 290.444 523.958 290.375 523.918L289.946 523.67L289.571 524.319L280.983 519.361L281.358 518.712L280.499 518.216L280.124 518.866L271.537 513.908L271.912 513.258L271.053 512.762L270.678 513.412L262.09 508.454L262.465 507.804L261.607 507.308L261.232 507.958L252.644 503L253.019 502.35L252.16 501.854L251.785 502.504L243.198 497.546L243.573 496.896L242.714 496.401L242.339 497.05L233.751 492.092L234.126 491.443L233.267 490.947L232.892 491.596L224.305 486.638L224.68 485.989L223.821 485.493L223.446 486.142L214.859 481.184L215.234 480.535L214.375 480.039L214 480.689L205.412 475.73L205.787 475.081L204.928 474.585L204.553 475.235L195.966 470.277L196.341 469.627L195.482 469.131L195.107 469.781L186.519 464.823L186.894 464.173L186.036 463.677L185.661 464.327L177.073 459.369L177.448 458.719L176.589 458.224L176.214 458.873L167.627 453.915L168.002 453.266L167.143 452.77L166.768 453.419L158.18 448.461L158.555 447.812L157.697 447.316L157.322 447.965L148.734 443.007L149.109 442.358L148.25 441.862L147.875 442.512L139.288 437.553L139.663 436.904L138.804 436.408L138.429 437.058L129.841 432.1L130.216 431.45L129.358 430.954L128.983 431.604L120.395 426.646L120.77 425.996L119.911 425.5L119.536 426.15L110.949 421.192L111.324 420.542L110.894 420.294C110.762 420.218 110.63 420.14 110.5 420.061L110.11 420.701C107.344 419.015 105.076 416.715 103.442 414.033L104.082 413.643C103.923 413.382 103.77 413.117 103.624 412.849L102.966 413.208C101.46 410.452 100.602 407.338 100.525 404.1L101.275 404.082C101.271 403.929 101.269 403.777 101.269 403.624V403.128H100.519V393.212H101.269V392.22H100.519V382.304H101.269V381.312H100.519V371.396H101.269V370.405H100.519V360.488H101.269V359.497H100.519V349.581H101.269V348.589H100.519V338.673H101.269V337.681H100.519V327.765H101.269V326.774H100.519V316.858H101.269V315.866H100.519V305.95H101.269V304.958H100.519V295.042H101.269V294.051H100.519V284.134H101.269V283.143H100.519V273.227H101.269V272.235H100.519V262.319H101.269V261.327H100.519V251.411H101.269V250.42H100.519V240.504H101.269V239.512H100.519V229.596H101.269V228.604H100.519V218.688H101.269V217.697H100.519V207.78H101.269V206.789H100.519V196.873H101.269V196.377C101.269 196.224 101.271 196.071 101.275 195.918L100.525 195.901C100.602 192.663 101.46 189.549 102.966 186.792L103.624 187.151C103.77 186.883 103.923 186.619 104.082 186.358L103.442 185.968C105.076 183.286 107.344 180.985 110.11 179.299L110.5 179.94C110.63 179.861 110.762 179.783 110.894 179.706L111.324 179.458L110.949 178.809L119.536 173.851L119.911 174.5L120.77 174.004L120.395 173.355L128.983 168.397L129.358 169.046L130.216 168.55L129.841 167.901L138.429 162.943L138.804 163.592L139.663 163.097L139.288 162.447L147.875 157.489L148.25 158.138L149.109 157.643L148.734 156.993L157.322 152.035L157.697 152.685L158.555 152.189L158.18 151.539L166.768 146.581L167.143 147.231L168.002 146.735L167.627 146.085L176.214 141.127L176.589 141.777L177.448 141.281L177.073 140.632L185.661 135.674L186.036 136.323L186.894 135.827L186.519 135.178L195.107 130.22L195.482 130.869L196.341 130.373L195.966 129.724L204.553 124.766L204.928 125.415L205.787 124.919L205.412 124.27L214 119.312L214.375 119.961L215.234 119.466L214.859 118.816L223.446 113.858L223.821 114.508L224.68 114.012L224.305 113.362L232.892 108.404L233.267 109.054L234.126 108.558L233.751 107.908L242.339 102.95L242.714 103.6L243.573 103.104L243.198 102.455L251.785 97.4965L252.16 98.146L253.019 97.6502L252.644 97.0007L261.232 92.0426L261.607 92.6922L262.465 92.1964L262.09 91.5468L270.678 86.5888L271.053 87.2383L271.912 86.7425L271.537 86.093L280.124 81.1349L280.499 81.7844L281.358 81.2886L280.983 80.6391Z" stroke="#475C75" stroke-width="1.5" stroke-dasharray="1 10"/>
<g filter="url(#filter0_d_52_26)">
<path d="M290 138.591C296.188 135.018 303.812 135.018 310 138.591L434.784 210.635C440.972 214.208 444.784 220.81 444.784 227.956V372.044C444.784 379.19 440.972 385.792 434.784 389.365L310 461.409C303.812 464.982 296.188 464.982 290 461.409L165.216 389.365C159.028 385.792 155.216 379.19 155.216 372.044V227.956C155.216 220.81 159.028 214.208 165.216 210.635L290 138.591Z" fill="white"/>
</g>
<g clip-path="url(#clip0_52_26)">
<path d="M293.613 202.529C293.193 202.567 291.859 202.701 290.658 202.796C262.955 205.293 237.006 220.239 220.571 243.21C211.419 255.983 205.565 270.471 203.354 285.817C202.572 291.173 202.477 292.756 202.477 300.019C202.477 307.282 202.572 308.864 203.354 314.221C208.654 350.842 234.718 381.61 270.066 393.01C276.396 395.05 283.069 396.441 290.658 397.28C293.613 397.604 306.387 397.604 309.342 397.28C322.441 395.831 333.537 392.59 344.481 387.005C346.159 386.147 346.483 385.918 346.254 385.728C346.102 385.613 338.952 376.024 330.372 364.434L314.776 343.369L295.233 314.45C284.48 298.551 275.633 285.55 275.557 285.55C275.481 285.531 275.405 298.379 275.367 314.069C275.309 341.539 275.29 342.644 274.947 343.293C274.451 344.227 274.07 344.608 273.269 345.027C272.659 345.332 272.125 345.39 269.246 345.39H265.948L265.071 344.837C264.499 344.475 264.079 343.998 263.793 343.445L263.393 342.587L263.431 304.365L263.488 266.124L264.079 265.381C264.384 264.98 265.033 264.466 265.49 264.218C266.272 263.837 266.577 263.799 269.876 263.799C273.765 263.799 274.413 263.951 275.424 265.057C275.71 265.362 286.291 281.299 298.951 300.495C311.611 319.692 328.923 345.904 337.427 358.772L352.87 382.163L353.652 381.648C360.573 377.149 367.894 370.744 373.691 364.072C386.026 349.908 393.977 332.636 396.646 314.221C397.428 308.864 397.523 307.282 397.523 300.019C397.523 292.756 397.428 291.173 396.646 285.817C391.346 249.196 365.282 218.428 329.934 207.028C323.699 205.007 317.064 203.616 309.628 202.777C307.798 202.586 295.195 202.377 293.613 202.529ZM333.537 261.511C334.452 261.968 335.196 262.845 335.463 263.76C335.616 264.256 335.654 274.855 335.616 298.742L335.558 333.017L329.514 323.753L323.451 314.488V289.572C323.451 273.464 323.528 264.409 323.642 263.97C323.947 262.903 324.614 262.064 325.53 261.568C326.311 261.168 326.597 261.13 329.591 261.13C332.412 261.13 332.908 261.168 333.537 261.511Z" fill="black"/>
</g>
<defs>
<filter id="filter0_d_52_26" x="145.216" y="125.912" width="309.569" height="348.177" filterUnits="userSpaceOnUse" color-interpolation-filters="sRGB">
<feFlood flood-opacity="0" result="BackgroundImageFix"/>
<feColorMatrix in="SourceAlpha" type="matrix" values="0 0 0 0 0 0 0 0 0 0 0 0 0 0 0 0 0 0 127 0" result="hardAlpha"/>
<feOffset/>
<feGaussianBlur stdDeviation="5"/>
<feComposite in2="hardAlpha" operator="out"/>
<feColorMatrix type="matrix" values="0 0 0 0 0.34902 0 0 0 0 0.458824 0 0 0 0 0.517647 0 0 0 0.15 0"/>
<feBlend mode="normal" in2="BackgroundImageFix" result="effect1_dropShadow_52_26"/>
<feBlend mode="normal" in="SourceGraphic" in2="effect1_dropShadow_52_26" result="shape"/>
</filter>
<clipPath id="clip0_52_26">
<rect width="195.046" height="195.046" fill="white" transform="translate(202.477 202.477)"/>
</clipPath>
</defs>
</svg>
